<svg xmlns="http://www.w3.org/2000/svg" version="1.1" xmlns:xlink="http://www.w3.org/1999/xlink" xmlns:svgjs="http://svgjs.dev/svgjs" width="1000" height="585" viewBox="0 0 1000 585"><g transform="matrix(1,0,0,1,-0.6060464772031082,-0.6152352888351516)"><svg viewBox="0 0 396 232" data-background-color="#ffffff" preserveAspectRatio="xMidYMid meet" height="585" width="1000" xmlns="http://www.w3.org/2000/svg" xmlns:xlink="http://www.w3.org/1999/xlink"><g id="tight-bounds" transform="matrix(1,0,0,1,0.2399944049724354,0.24399074702522228)"><svg viewBox="0 0 395.52 231.51201478743067" height="231.51201478743067" width="395.52"><g><svg viewBox="0 0 395.52 231.51201478743067" height="231.51201478743067" width="395.52"><g><svg viewBox="0 0 395.52 231.51201478743067" height="231.51201478743067" width="395.52"><g><svg viewBox="0 0 395.52 231.51201478743067" height="231.51201478743067" width="395.52"><g><svg viewBox="0 0 395.52 231.51201478743067" height="231.51201478743067" width="395.52"><g><svg viewBox="0 0 395.52 231.51201478743067" height="231.51201478743067" width="395.52"><g><svg viewBox="0 0 395.52 231.51201478743067" height="231.51201478743067" width="395.52"><g transform="matrix(1,0,0,1,0,0)"><svg width="395.52" viewBox="-0.08000000566244125 -33.36000061035156 64.91999816894531 38" height="231.51201478743067" data-palette-color="#ed2647"><path d="M1.72-25.6L1.72-25.6Q1.44-24.92 1.44-24.4 1.44-23.88 1.76-23.88L1.76-23.88Q1.68-23.32 0.88-23.32L0.88-23.32Q-0.08-23.32-0.08-24.72-0.08-26.12 1.48-27.36L1.48-27.36Q3.08-28.6 5.58-28.6 8.08-28.6 9.74-26.74 11.4-24.88 12.02-22.2 12.64-19.52 12.64-16.04L12.64-16.04Q12.64-8.8 10.04 0.72L10.04 0.72Q9.88 1.2 10.36 1.2L10.36 1.2Q10.72 1.2 11.08 0.88L11.08 0.88Q15.28-2.96 19.04-12.24 22.8-21.52 22.8-27.12L22.8-27.12Q22.8-29.6 21.72-29.6L21.72-29.6Q21.84-30.16 22.32-30.54 22.8-30.92 23.44-30.92L23.44-30.92Q25.2-30.92 25.2-27.92L25.2-27.92Q25.2-23.6 22.52-16.26 19.84-8.92 15.88-3 11.92 2.92 8.88 2.92L8.88 2.92Q6.8 2.92 6.8 0.92L6.8 0.92Q7.92-2.4 8.88-8.18 9.84-13.96 9.84-18.04L9.84-18.04Q9.84-27.64 5.04-27.64L5.04-27.64Q2.6-27.64 1.72-25.6ZM42.8-20.48L42.8-20.48Q42.8-17.52 44.48-17.32L44.48-17.32Q44.36-16.76 43.55-16.76L43.55-16.76Q41.91-16.76 41.23-18.76L41.23-18.76Q40.91-19.68 40.91-21.02 40.91-22.36 41.95-24.24L41.95-24.24Q44.31-28.6 50.52-29.84L50.52-29.84Q52.64-30.24 55.06-30.24 57.48-30.24 59.2-30.72 60.92-31.2 61.56-31.8L61.56-31.8Q63.23-33.36 64.03-33.36 64.84-33.36 64.84-32.88L64.84-32.88Q64.84-32.76 64.84-32.64L64.84-32.64Q64.56-31.52 62.44-30.52L62.44-30.52Q61.16-29.96 59.56-29.64L59.56-29.64Q58.23-29.08 57.36-26.58 56.48-24.08 55.52-19.36L55.52-19.36Q57.59-19.56 58.95-19.56L58.95-19.56Q59.31-19.56 59.28-19.12L59.28-19.12Q59.12-18.64 58.44-18.62 57.76-18.6 55.28-18.2L55.28-18.2Q53.4-8.92 52-5.08L52-5.08Q48.48 4.64 41.95 4.64L41.95 4.64Q37.27 4.64 36.12 0.36L36.12 0.36Q35.68-1.12 35.68-2.6L35.68-2.6Q35.68-5.4 37.16-8.2L37.16-8.2Q39.4-12.48 43.04-12.48L43.04-12.48Q43.55-12.48 43.9-12.24 44.23-12 44.36-11.52L44.36-11.52Q40.91-11.52 38.68-7.96L38.68-7.96Q36.91-5.2 36.91-2.24L36.91-2.24Q36.91 2.08 39.95 3.04L39.95 3.04Q40.68 3.24 41.84 3.24 43 3.24 44.3 2.58 45.59 1.92 46.66 0.18 47.72-1.56 48.4-2.74 49.08-3.92 49.95-6.96L49.95-6.96Q51-10.68 51.72-13.86 52.44-17.04 52.59-17.68L52.59-17.68Q50.36-17.32 49.22-17.32 48.08-17.32 47.92-18.32L47.92-18.32Q47.88-19.12 48.36-19.24L48.36-19.24Q48.55-19 49.62-19 50.68-19 52.95-19.2L52.95-19.2Q53.95-23.12 54.88-25.58 55.8-28.04 57.04-29.32L57.04-29.32Q56.4-29.28 55.04-29.28L55.04-29.28Q47.36-29.28 44.28-24.76L44.28-24.76Q42.8-22.64 42.8-20.48ZM60.4-12.28L60.4-12.28Q60.4-12.08 60.04-12.08 59.67-12.08 59.34-12.24 59-12.4 59-12.68L59-12.68Q59-16.76 59.92-19.26 60.84-21.76 62.36-21.76L62.36-21.76Q62.76-21.76 63.04-21.48 63.31-21.2 63.31-20.72L63.31-20.72Q61.52-18.92 60.72-15.36L60.72-15.36Q60.4-13.88 60.4-12.28Z" opacity="1" transform="matrix(1,0,0,1,0,0)" fill="#ed2647" class="undefined-text-0" data-fill-palette-color="primary" id="text-0"></path></svg></g></svg></g></svg></g></svg></g></svg></g></svg></g></svg></g><defs></defs></svg><rect width="395.52" height="231.51201478743067" fill="none" stroke="none" visibility="hidden"></rect></g></svg></g></svg>