<svg xmlns="http://www.w3.org/2000/svg" version="1.1" xmlns:xlink="http://www.w3.org/1999/xlink" xmlns:svgjs="http://svgjs.dev/svgjs" width="1000" height="426" viewBox="0 0 1000 426"><g transform="matrix(1,0,0,1,-0.6060606060606233,0.04601270701803628)"><svg viewBox="0 0 396 169" data-background-color="#ffffff" preserveAspectRatio="xMidYMid meet" height="426" width="1000" xmlns="http://www.w3.org/2000/svg" xmlns:xlink="http://www.w3.org/1999/xlink"><g id="tight-bounds" transform="matrix(1,0,0,1,0.2400000000000091,-0.018253867338145824)"><svg viewBox="0 0 395.52 169.0365038560411" height="169.0365038560411" width="395.52"><g><svg viewBox="0 0 395.52 169.0365038560411" height="169.0365038560411" width="395.52"><g><svg viewBox="0 0 395.52 169.0365038560411" height="169.0365038560411" width="395.52"><g><svg viewBox="0 0 395.52 169.0365038560411" height="169.0365038560411" width="395.52"><g><svg viewBox="0 0 395.52 169.0365038560411" height="169.0365038560411" width="395.52"><g transform="matrix(1,0,0,1,0,0)"><svg width="395.52" viewBox="1 -29.700000762939453 77.80000305175781 33.25" height="169.0365038560411" data-palette-color="#7a26c1"><path d="M10.35 3.55L10.35 3.55Q5.85 3.55 5.85-0.2L5.85-0.2Q5.85-2.8 9.9-12.2L9.9-12.2Q14.65-23.2 15.25-26.2L15.25-26.2Q10.1-26.2 6.18-24.68 2.25-23.15 2.25-20.35L2.25-20.35Q2.25-19.6 2.65-19 3.05-18.4 3.45-18.15L3.45-18.15Q4.25-17.65 5.25-17.15L5.25-17.15Q5.85-16.7 5.45-16.6L5.45-16.6Q5.3-16.6 5.1-16.65L5.1-16.65Q3.95-16.9 2.6-18.1 1.25-19.3 1.2-20.85L1.2-20.85Q1-21.35 1-21.75L1-21.75Q1-24.15 3.23-25.8 5.45-27.45 8.22-27.93 11-28.4 12.7-28.4 14.4-28.4 15.35-28.35L15.35-28.35Q15.3-28.7 15.05-29.1 14.8-29.5 15.35-29.65L15.35-29.65Q15.4-29.65 15.5-29.65L15.5-29.65Q16-29.65 16.45-28.9L16.45-28.9 16.7-28.2Q19.55-27.8 21.45-26.95L21.45-26.95Q22.2-26.65 22.65-25.93 23.1-25.2 22.35-25.25L22.35-25.25Q21.9-25.25 20.7-25.68 19.5-26.1 16.75-26.2L16.75-26.2Q16.5-21.15 14-15.45L14-15.45Q9.2-4.25 9.2-0.3L9.2-0.3Q9.2 2.25 11.25 2.25L11.25 2.25Q13.75 2.25 18.35-1.25L18.35-1.25Q23.8-5.3 28.85-13.35L28.85-13.35Q29.5-14.4 31.3-17.35L31.3-17.35Q34.75-23.05 37.1-25.95L37.1-25.95Q38.6-27.8 40.48-28.75 42.35-29.7 43.4-29.7 44.45-29.7 45-29.43 45.55-29.15 45.55-28.93 45.55-28.7 45.3-28.7L45.3-28.7 44.75-28.75Q43.1-28.75 40.1-25.1L40.1-25.1Q38.2-22.8 34.83-18.25 31.45-13.7 29.95-11.75L29.95-11.75Q23.55-3.7 18.9-0.08 14.25 3.55 10.35 3.55ZM55.2-2.9L55.2-2.9Q55.35-2.9 55.35-2.6 55.35-2.3 54.65-1.6L54.65-1.6 54.15-0.85Q52.8 1.2 52.17 1.55 51.55 1.9 51.17 1.9 50.8 1.9 50.02 1.73 49.25 1.55 49.22 1.35 49.2 1.15 49.2 0.95L49.2 0.95Q49.2-1.5 53.65-10.1L53.65-10.1Q52.45-9.95 51.82-9.95 51.2-9.95 50.77-10.33 50.35-10.7 50.35-11.3 50.35-11.9 51.4-12.4 52.45-12.9 53.02-12.9 53.6-12.9 54-12.43 54.4-11.95 54.5-11.95L54.5-11.95 54.65-11.95Q55.7-13.85 56.55-15.45 57.4-17.05 57.4-17.53 57.4-18 57.25-18.25L57.25-18.25Q57.55-19.7 59.72-21.95 61.9-24.2 63.7-24.2L63.7-24.2Q64.5-24.2 65.65-23.58 66.8-22.95 66.65-21.95L66.65-21.95Q66.3-22.2 66-22.2L66-22.2Q62.6-22.2 56.65-12L56.65-12Q58.3-12.15 60.09-12.45L60.09-12.45Q66.09-13.2 66.9-13.2 67.7-13.2 67.92-13.18 68.15-13.15 68.32-13.05 68.5-12.95 68.55-12.85L68.55-12.85Q68.59-12.55 67.4-12.15L67.4-12.15Q64.5-11.2 55.65-10.25L55.65-10.25Q51.45-2.65 51.45-0.9L51.45-0.9Q51.45-0.05 52.17-0.28 52.9-0.5 53.45-1.2L53.45-1.2Q54.75-2.9 55.2-2.9ZM74.75-26.7L74.75-26.7Q76.2-28.3 77.5-28.3L77.5-28.3Q78.09-28.3 78.45-28 78.8-27.7 78.8-27.4 78.8-27.1 78.5-26.8 78.2-26.5 77.34-25.88 76.5-25.25 76-24.75L76-24.75Q73.59-22.4 73.59-20.7L73.59-20.7Q73.59-19.95 73.92-19.45 74.25-18.95 73.84-18.82 73.45-18.7 73.09-19.15L73.09-19.15Q72.65-19.45 72.65-21.15L72.65-21.15Q72.65-23.4 73.45-24.9L73.45-24.9Q73.55-25.05 73.77-25.43 74-25.8 74.15-25.95L74.15-25.95Q73.8-25.95 72.27-25.95 70.75-25.95 66.22-26.35 61.7-26.75 59.4-26.75 57.1-26.75 55.85-26.45L55.85-26.45Q51.1-25.8 47.67-23.83 44.25-21.85 43.6-18.85L43.6-18.85Q43.5-18.55 43.5-18.13 43.5-17.7 43.77-17.1 44.05-16.5 44.45-16.15 44.85-15.8 45.67-15.3 46.5-14.8 46.77-14.58 47.05-14.35 46.87-14.2 46.7-14.05 46.52-14.05 46.35-14.05 46.15-14.1L46.15-14.1Q44.45-14.6 43.27-15.98 42.1-17.35 42.1-18.28 42.1-19.2 42.35-19.85L42.35-19.85Q42.35-20.4 42.4-20.65L42.4-20.65Q43.15-24.2 46.95-26.15L46.95-26.15Q51.5-28.5 58.05-28.5L58.05-28.5Q61.65-28.5 66.9-27.65 72.15-26.8 74.75-26.7Z" opacity="1" transform="matrix(1,0,0,1,0,0)" fill="#7a26c1" class="undefined-text-0" data-fill-palette-color="primary" id="text-0"></path></svg></g></svg></g></svg></g></svg></g><g></g></svg></g><defs></defs></svg><rect width="395.52" height="169.0365038560411" fill="none" stroke="none" visibility="hidden"></rect></g></svg></g></svg>